<svg width="116" height="49" viewBox="0 0 116 49" fill="none" xmlns="http://www.w3.org/2000/svg">
<path d="M0.336487 31.9057H1.62388C3.3817 31.9057 3.57674 31.3456 3.57674 26.3011V11.7827C3.57674 6.73816 3.3817 6.17803 1.62388 6.17803H0.336487V5.82513H9.47967C14.7171 5.82513 18.268 8.03153 18.268 11.3857C18.268 13.5038 16.3151 16.0631 12.9417 16.5051V16.6815C17.6904 17.0344 21.0637 20.8738 21.0637 24.6249C21.0637 29.2141 16.5813 32.2595 10.8558 32.2595H0.336487V31.9066V31.9057ZM7.61555 31.597H10.1895C14.7607 31.597 17.8678 28.8171 17.8678 24.624C17.8678 20.2112 14.5389 17.0336 9.96768 17.0336H8.01482V16.3719H9.47967C12.7199 16.3719 15.1164 14.3419 15.1164 11.4289C15.1164 8.51593 12.6756 6.48597 8.99167 6.48597H5.97324V6.53008C6.41688 6.9712 6.59433 7.58959 6.59433 8.4277V29.8317C6.59433 30.9794 6.94925 31.597 7.61555 31.597Z" fill="white"/>
<path d="M22.6173 31.9058H23.9047C25.6801 31.9058 25.9019 31.3765 25.9019 26.3453V3.53057C25.9019 2.82479 25.5027 2.42695 24.792 2.42695H23.0609V2.11818H25.1913C26.7005 2.11818 28.5202 1.63295 28.5202 0.132334V0H28.7864V26.3461C28.7864 31.3773 29.0082 31.9066 30.7836 31.9066H32.1154V32.2595H22.6173V31.9066V31.9058Z" fill="white"/>
<path d="M43.6099 21.8001H46.717V15.7985C46.717 12.6208 45.1635 10.9887 42.3233 10.9887C38.6838 10.9887 36.8197 13.151 36.6422 16.0199L36.4648 18.2263H35.7993L36.1986 10.5917C36.5066 10.6682 36.9084 10.724 37.2641 10.724C38.4628 10.724 40.1445 10.2829 42.2798 10.2829C47.0728 10.2829 49.692 12.4011 49.692 16.2845V30.1854C49.692 31.1118 50.18 31.4214 50.7132 31.4214C51.2899 31.4214 51.7787 30.9803 51.7787 30.1413V29.5679H52.1337V30.1413C52.1337 31.4081 51.0798 32.4359 49.7815 32.4359C48.6741 32.4359 47.7726 31.4863 47.6956 30.2736L47.4737 26.6107H47.1188C46.142 31.1118 43.1244 32.5683 40.4617 32.5683C36.4673 32.5683 34.0708 30.7148 34.0708 27.979C34.0708 23.9632 37.3998 21.8009 43.6132 21.8009L43.6099 21.8001ZM40.9028 31.5529C43.6099 31.5529 46.717 29.3024 46.717 23.9624V22.4618H43.7882C39.4388 22.4618 37.0423 24.4035 37.0423 27.9782C37.0423 30.1846 38.7734 31.5529 40.9037 31.5529H40.9028Z" fill="white"/>
<path d="M53.7299 31.9058H55.0173C56.7927 31.9058 56.9702 31.3764 56.9702 26.3011V12.754C56.9702 11.8401 56.4721 11.4423 55.9473 11.4423C55.3647 11.4423 54.8842 11.9333 54.8842 12.754V14.1222H54.5293V12.754C54.5293 11.2309 55.728 10.4593 57.0146 10.4593C58.1689 10.4593 59.278 11.0877 59.278 12.4011V13.9899C59.278 14.5634 59.2336 17.4764 59.1892 17.8293H59.4554C59.5441 17.1676 59.8547 16.064 60.0765 15.4464C61.1421 12.3128 63.7604 10.2829 66.8224 10.2829C70.8168 10.2829 73.0359 12.4893 73.0359 15.8434V26.302C73.0359 31.3773 73.2133 31.9066 74.9887 31.9066H75.9656V32.2595H66.9111V31.9066H68.1985C69.9739 31.9066 70.1513 31.3773 70.1513 26.302V16.858C70.1513 13.2392 69.0858 11.2975 66.5118 11.2975C62.7392 11.2975 59.8547 14.6957 59.8547 19.9025V26.3011C59.8547 31.3764 60.0765 31.9058 61.8519 31.9058H63.1837V32.2587H53.7299V31.9058Z" fill="white"/>
<path d="M79.96 3.53057C79.96 2.82479 79.5607 2.42695 78.8501 2.42695H77.119V2.11818H79.2493C80.7585 2.11818 82.3565 1.76528 82.7114 0.35289L82.8001 0H83.0663L82.8445 6.31041V20.4327C84.1763 20.4327 84.9304 20.3445 85.2854 19.9034L89.5016 15.1377L90.8777 13.3283C91.272 12.8114 91.5072 12.3237 91.5072 11.9259C91.5072 11.3374 90.9941 10.9454 89.7243 10.9454H89.5468V10.5925H97.7132V10.9454H97.4026C95.849 10.9454 93.7631 11.8718 92.0764 13.5488L89.9905 15.5788L85.996 20.1239V20.2562C91.6771 21.5363 92.387 24.4044 92.7419 27.2292C93.0968 30.1413 93.7187 31.7743 95.8934 31.7743C96.3814 31.7743 97.0477 31.5979 97.7132 31.0685L98.2012 30.6715L98.3786 30.9362L97.935 31.2891C96.8577 32.1455 95.849 32.6574 94.9166 32.6574C91.3658 32.6574 90.2566 30.3186 89.5904 26.6116C89.1023 23.7435 88.4804 20.7423 83.3325 20.7423H82.8445V26.3469C82.8445 31.3781 83.0663 31.9075 84.8417 31.9075H86.1291V32.2603H76.7197V31.9075H78.0071C79.7825 31.9075 79.96 31.3781 79.96 26.3469V3.53057Z" fill="white"/>
<path d="M102.063 31.8176C101.619 31.8176 101.086 31.9499 100.775 32.0381L100.331 23.0794H100.997L101.13 25.6386C101.341 29.6994 104.237 31.9049 107.698 31.9049C111.16 31.9049 113.202 29.875 113.202 26.8738C113.202 24.535 110.584 23.3432 107.743 22.1963C104.503 20.8721 100.864 19.3282 100.864 15.8859C100.864 12.4435 104.015 10.2812 108.32 10.2812C110.939 10.2812 112.049 10.7665 113.025 10.7665C113.38 10.7665 113.779 10.7224 114.268 10.59L114.623 18.2246H113.957L113.868 16.724C113.705 13.9725 111.96 10.987 108.32 10.987C105.391 10.987 103.438 12.1789 103.438 15.091C103.438 17.2092 106.1 18.3128 108.853 19.4156C112.226 20.7839 115.999 22.461 115.999 26.2562C115.999 30.0514 112.67 32.5666 107.699 32.5666C105.125 32.5666 103.483 31.8167 102.063 31.8167V31.8176Z" fill="white"/>
<path d="M3.31224 41.6794C3.88144 41.6794 4.4046 41.8492 4.84824 41.8492C4.98468 41.8492 5.13284 41.8376 5.26928 41.8043L5.33792 44.2146H5.16716L5.14456 43.3998C5.11861 42.4685 4.16604 41.8384 3.23272 41.8384C1.79884 41.8384 0.842918 43.0943 0.842918 44.9728C0.842918 47.225 2.11943 48.3444 3.38088 48.3444C4.29997 48.3444 5.09434 47.9358 5.45176 47.1559L5.6108 47.2125C5.23496 48.1522 4.32508 48.6157 3.32312 48.6157C1.33176 48.6157 0 47.2125 0 45.1193C0 43.2183 1.47908 41.6794 3.3114 41.6794H3.31224Z" fill="white"/>
<path d="M16.1494 48.446H16.4792C16.9345 48.446 16.9797 48.2987 16.9797 46.9412V43.275C16.9797 41.9849 16.9345 41.8493 16.4792 41.8493H16.1494V41.7585H18.6078V41.8493H18.2663C17.8109 41.8493 17.754 41.9849 17.754 43.275V47.8692C17.754 48.0731 17.6628 48.2429 17.5489 48.3561V48.3678H18.8346C19.7454 48.3678 20.348 48.1863 20.4276 47.2816L20.4962 46.3428H20.6896L20.5414 48.4476C20.4728 48.5159 20.4276 48.5384 20.2794 48.5384H16.1485V48.4476L16.1494 48.446Z" fill="white"/>
<path d="M31.3194 45.1418C31.3194 43.2292 32.8219 41.6794 34.6877 41.6794C36.7017 41.6794 38.056 43.0602 38.056 45.1418C38.056 47.0544 36.5426 48.6157 34.6877 48.6157C32.662 48.6157 31.3194 47.2242 31.3194 45.1418ZM37.2256 45.3232C37.2256 43.4106 36.0764 41.8492 34.6534 41.8492C33.1509 41.8492 32.138 43.1052 32.138 44.972C32.138 46.8388 33.299 48.446 34.7212 48.446C36.2237 48.446 37.2248 47.2008 37.2248 45.3232H37.2256Z" fill="white"/>
<path d="M49.3345 48.446H50.0628C50.5181 48.446 50.5633 48.3103 50.5633 47.0086V41.9283H50.2561C49.4367 41.9283 48.8105 42.0981 48.7427 43.0144L48.7084 43.399L48.5377 43.3873L48.6515 41.7577H53.2603L53.3625 43.3873L53.1917 43.399L53.1574 43.0144C53.0887 42.1089 52.4635 41.9283 51.644 41.9283H51.3368V47.0086C51.3368 48.3103 51.382 48.446 51.8373 48.446H52.5313V48.5367H49.3337V48.446H49.3345Z" fill="white"/>
<path d="M63.7989 48.446H64.1287C64.579 48.446 64.6293 48.3036 64.6293 47.0203V43.2858C64.6293 41.9924 64.579 41.8484 64.1287 41.8484H63.7989V41.7577H66.1661V41.8484H65.9158C65.4546 41.8484 65.4035 41.9924 65.4035 43.2858V44.8813H68.0093V43.3199C68.0093 41.9957 67.9582 41.8492 67.497 41.8492H67.2467V41.7585H69.6248V41.8492H69.2833C68.833 41.8492 68.7828 41.9966 68.7828 43.3199V47.0086C68.7828 48.302 68.833 48.446 69.2833 48.446H69.6248V48.5367H67.2467V48.446H67.5087C67.9591 48.446 68.0093 48.302 68.0093 47.0086V45.0511H65.4035V47.0203C65.4035 48.3036 65.4546 48.446 65.9158 48.446H66.1661V48.5367H63.7989V48.446Z" fill="white"/>
<path d="M80.0956 48.446H80.4254C80.8757 48.446 80.926 48.302 80.926 47.0086V43.2633C80.926 41.9908 80.8757 41.8493 80.4254 41.8493H80.0956V41.7585H82.5306V41.8717H82.2008C81.7505 41.8717 81.7002 42.0132 81.7002 43.2866V47.0095C81.7002 48.3028 81.7505 48.4468 82.2008 48.4468H82.5306V48.5375H80.0956V48.4468V48.446Z" fill="white"/>
<path d="M93.0005 48.4459H93.1939C93.558 48.4459 93.7514 48.2087 93.7514 47.0086V42.3353C93.7514 41.8825 93.6945 41.8484 93.2391 41.8484H92.9997V41.7577H94.4679L97.1197 46.51C97.2218 46.6906 97.2905 46.8271 97.2905 46.8604H97.3474C97.3357 46.7589 97.3357 46.6224 97.3357 46.4643V43.4547C97.3357 42.2778 97.1875 41.8476 96.7782 41.8476H96.3002V41.7568H98.2916V41.8476H98.0982C97.6889 41.8476 97.529 42.0964 97.529 43.4547V48.6715H97.4269C97.4269 48.6265 97.2905 48.366 97.154 48.128L94.1724 42.8213C94.0703 42.6515 93.979 42.4593 93.979 42.4476H93.9339C93.9456 42.5492 93.9456 42.6965 93.9456 42.8546V47.0077C93.9456 48.0598 94.0937 48.4451 94.503 48.4451H94.6964V48.5358H93.0005V48.4451V48.4459Z" fill="white"/>
<path d="M114.236 48.9095V48.2537C114.224 48.0157 114.054 47.7901 113.849 47.7901C113.758 47.7901 113.667 47.8351 113.576 47.9258C113.143 48.3785 112.541 48.6157 111.892 48.6157C110.025 48.6157 108.774 47.2125 108.774 45.1193C108.774 43.2183 110.22 41.6794 112.018 41.6794C112.644 41.6794 113.065 41.8492 113.531 41.8492C113.667 41.8492 113.804 41.8268 113.94 41.8043L114.066 44.2146H113.895L113.861 43.5812C113.801 42.4826 112.893 41.8501 111.926 41.8501C110.527 41.8501 109.594 43.0952 109.594 44.9728C109.594 46.8505 110.641 48.4468 111.926 48.4468C112.553 48.4351 113.155 48.1863 113.543 47.6661V46.9079C113.543 45.6969 113.463 45.5612 112.666 45.5612H111.585V45.3915H114.407C114.328 45.652 114.316 45.9233 114.316 46.3303V48.9104H114.237L114.236 48.9095Z" fill="white"/>
</svg>
